<?xml version="1.0" encoding="UTF-8"?><svg xmlns="http://www.w3.org/2000/svg" xmlns:xlink="http://www.w3.org/1999/xlink" version="1.1" id="Layer_1" x="0px" y="0px" viewBox="0 0 24 24" xml:space="preserve"><path fill="#303C42" d="M22 6c0-.724-.396-1.383-1.014-1.733a2.003 2.003 0 0 0-1.753-1.753c-.51-.903-1.761-1.271-2.683-.77a2.006 2.006 0 0 0-1.814-.726A2 2 0 0 0 13 0c-.783 0-1.47.46-1.794 1.13a1.982 1.982 0 0 0-.473-.116A1.996 1.996 0 0 0 9 0a2 2 0 0 0-1.736 1.018 1.985 1.985 0 0 0-1.679.572A1.93 1.93 0 0 0 5 1.5a2.002 2.002 0 0 0-1.982 2.264A2 2 0 0 0 2 5.5c0 .729.4 1.39 1.022 1.739.002.006.005.011.006.017l2.987 14.907a.48.48 0 0 0 .027.09C6.436 23.63 9.942 24 12 24c2.058 0 5.56-.371 5.957-1.744a.58.58 0 0 0 .028-.093l2.883-14.39C21.544 7.443 22 6.776 22 6z"/><path fill="#D32F2F" d="M4.326 8.642l2.653 13.247c.012.031.021.064.027.098.045.115.29.263.685.411L5.68 9.188c-.509-.16-.97-.34-1.353-.546z"/><path opacity="0.2" fill="#FFF" d="M4.326 8.642l2.653 13.247c.012.031.021.064.027.098.045.115.29.263.685.411L5.68 9.188c-.509-.16-.97-.34-1.353-.546z"/><path fill="#D32F2F" d="M18.32 9.193l-2.01 13.203c.394-.15.64-.3.686-.417a.522.522 0 0 1 .026-.098l2.65-13.23a7.81 7.81 0 0 1-1.352.542z"/><path opacity="0.1" d="M18.32 9.193l-2.01 13.203c.394-.15.64-.3.686-.417a.522.522 0 0 1 .026-.098l2.65-13.23a7.81 7.81 0 0 1-1.352.542z"/><path fill="#E6E6E6" d="M7.219 9.568c-.55-.108-1.07-.233-1.54-.38l2.012 13.21a7.41 7.41 0 0 0 1.031.289L7.22 9.568z"/><path fill="#E6E6E6" d="M16.78 9.572l-1.503 13.114c.418-.09.763-.188 1.032-.29l2.01-13.203c-.473.148-.99.273-1.539.379z"/><path fill="#D32F2F" d="M14.005 22.893c.483-.054.899-.127 1.272-.207L16.78 9.572c-.63.121-1.293.216-1.976.285l-.799 13.036z"/><path fill="#D32F2F" d="M9.195 9.856a21.74 21.74 0 0 1-1.976-.288l1.503 13.119c.373.08.79.152 1.272.206L9.195 9.856z"/><path fill="#E6E6E6" d="M12.668 22.982c.478-.017.932-.044 1.337-.089l.799-13.036c-.614.061-1.236.105-1.857.125l-.279 13z"/><path fill="#FFF" d="M20.235 6.968a.5.5 0 0 0-.305.221C19.373 8.079 16.256 9 12 9 6.748 9 4 7.698 3.995 7.063c.005-.02.015-.078.017-.1a.5.5 0 0 0-.334-.523A.999.999 0 0 1 3 5.5a1 1 0 0 1 .74-.96.498.498 0 0 0 .333-.669A1.001 1.001 0 0 1 5 2.5a.98.98 0 0 1 .488.135.5.5 0 0 0 .67-.168.993.993 0 0 1 1.213-.393.498.498 0 0 0 .669-.333A1 1 0 0 1 9 1c.42 0 .799.27.938.673.07.202.32.327.536.327.254.003.505.088.699.267a.501.501 0 0 0 .837-.335A.998.998 0 0 1 13 1a1 1 0 0 1 .96.74.498.498 0 0 0 .669.334.995.995 0 0 1 1.306.583.5.5 0 0 0 .836.166c.483-.525 1.436-.319 1.667.35.07.202.32.327.536.327a1.029 1.029 0 0 1 1.018 1.056.5.5 0 0 0 .335.505c.402.14.673.518.673.939 0 .46-.314.858-.765.968z"/><path fill="#E6E6E6" d="M11.33 22.982l-.279-13c-.63-.02-1.25-.065-1.856-.126l.799 13.037c.405.045.86.072 1.336.089z"/><path fill="#D32F2F" d="M12 10c-.317 0-.633-.008-.949-.018l.28 13c.22.007.434.018.669.018.234 0 .448-.01.668-.018l.279-13A28.9 28.9 0 0 1 12 10z"/><path fill="#303C42" d="M8.5 4a.5.5 0 1 0 0-1C7.673 3 7 3.673 7 4.5a.5.5 0 1 0 1 0 .5.5 0 0 1 .5-.5z"/><path fill="#303C42" d="M15.5 4c-.827 0-1.5.673-1.5 1.5a.5.5 0 1 0 1 0 .5.5 0 0 1 .5-.5.5.5 0 1 0 0-1z"/><path fill="#303C42" d="M17.5 5a.5.5 0 1 0 0 1 .5.5 0 0 1 .5.5.5.5 0 1 0 1 0c0-.827-.673-1.5-1.5-1.5z"/><path fill="#303C42" d="M11.5 6a.5.5 0 1 0 0 1 .5.5 0 0 1 .5.5.5.5 0 1 0 1 0c0-.827-.673-1.5-1.5-1.5z"/><path fill="#303C42" d="M9.5 5C8.673 5 8 5.673 8 6.5a.5.5 0 1 0 1 0 .5.5 0 0 1 .5-.5.5.5 0 1 0 0-1z"/><circle fill="#303C42" cx="12" cy="16" r="4"/><circle fill="#F2F2F2" cx="12" cy="16" r="3"/><path opacity="0.4" fill="#FFF" d="M9.5 16.5c0-1.654 1.346-3 3-3 .7 0 1.336.25 1.846.654A2.984 2.984 0 0 0 12 13c-1.654 0-3 1.346-3 3 0 .955.457 1.797 1.154 2.346A2.97 2.97 0 0 1 9.5 16.5z"/><linearGradient id="SVGID_1_" gradientUnits="userSpaceOnUse" x1="1.0766418" y1="7.0421491" x2="20.7797756" y2="16.2298717"><stop offset="0" stop-color="#FFF" stop-opacity="0.2"/><stop offset="1" stop-color="#FFF" stop-opacity="0"/></linearGradient><path fill="url(#SVGID_1_)" d="M22 6c0-.724-.396-1.383-1.014-1.733a2.003 2.003 0 0 0-1.753-1.753c-.51-.903-1.761-1.271-2.683-.77a2.006 2.006 0 0 0-1.814-.726A2 2 0 0 0 13 0c-.783 0-1.47.46-1.794 1.13a1.982 1.982 0 0 0-.473-.116A1.996 1.996 0 0 0 9 0a2 2 0 0 0-1.736 1.018 1.985 1.985 0 0 0-1.679.572A1.93 1.93 0 0 0 5 1.5a2.002 2.002 0 0 0-1.982 2.264A2 2 0 0 0 2 5.5c0 .729.4 1.39 1.022 1.739.002.006.005.011.006.017l2.987 14.907a.48.48 0 0 0 .027.09C6.436 23.63 9.942 24 12 24c2.058 0 5.56-.371 5.957-1.744a.58.58 0 0 0 .028-.093l2.883-14.39C21.544 7.443 22 6.776 22 6z"/><linearGradient id="SVGID_2_" gradientUnits="userSpaceOnUse" x1="1.0766418" y1="7.0421491" x2="20.7797756" y2="16.2298717"><stop offset="0" stop-color="#FFF" stop-opacity="0.2"/><stop offset="1" stop-color="#FFF" stop-opacity="0"/></linearGradient><path fill="url(#SVGID_2_)" d="M22 6c0-.724-.396-1.383-1.014-1.733a2.003 2.003 0 0 0-1.753-1.753c-.51-.903-1.761-1.271-2.683-.77a2.006 2.006 0 0 0-1.814-.726A2 2 0 0 0 13 0c-.783 0-1.47.46-1.794 1.13a1.982 1.982 0 0 0-.473-.116A1.996 1.996 0 0 0 9 0a2 2 0 0 0-1.736 1.018 1.985 1.985 0 0 0-1.679.572A1.93 1.93 0 0 0 5 1.5a2.002 2.002 0 0 0-1.982 2.264A2 2 0 0 0 2 5.5c0 .729.4 1.39 1.022 1.739.002.006.005.011.006.017l2.987 14.907a.48.48 0 0 0 .027.09C6.436 23.63 9.942 24 12 24c2.058 0 5.56-.371 5.957-1.744a.58.58 0 0 0 .028-.093l2.883-14.39C21.544 7.443 22 6.776 22 6z"/><metadata><rdf:RDF xmlns:rdf="http://www.w3.org/1999/02/22-rdf-syntax-ns#" xmlns:rdfs="http://www.w3.org/2000/01/rdf-schema#" xmlns:dc="http://purl.org/dc/elements/1.1/"><rdf:Description about="https://iconscout.com/legal#licenses" dc:title="food,eat,popcorn,movie,snack" dc:description="food,eat,popcorn,movie,snack" dc:publisher="Iconscout" dc:date="2017-08-16" dc:format="image/svg+xml" dc:language="en"><dc:creator><rdf:Bag><rdf:li>Those Icons</rdf:li></rdf:Bag></dc:creator></rdf:Description></rdf:RDF></metadata></svg>